<?xml version="1.0" encoding="UTF-8" standalone="no"?><svg version="1.1" width="100" height="100" id="svg4460" xmlns="http://www.w3.org/2000/svg" xmlns:svg="http://www.w3.org/2000/svg" xmlns:rdf="http://www.w3.org/1999/02/22-rdf-syntax-ns#" xmlns:cc="http://creativecommons.org/ns#" xmlns:dc="http://purl.org/dc/elements/1.1/">
<path style="fill:rgb(0, 0, 0)"  xmlns="http://www.w3.org/2000/svg" data-name="Combined Shape" d="M50.33 100a12.5 12.5 0 01-12.5-12.5 2.905 2.905 0 00-2-2.855 2.745 2.745 0 00-1.1-.23 2.67 2.67 0 00-1.855.74l-.245.245a12.5 12.5 0 01-17.685 0 12.57 12.57 0 01-3.66-8.84 12.425 12.425 0 013.66-8.84l.205-.22a2.75 2.75 0 00.5-3.03 2.705 2.705 0 00-2.465-1.64H12.5a12.5 12.5 0 010-25 2.905 2.905 0 002.855-2 2.71 2.71 0 00-.5-2.96l-.245-.245a12.5 12.5 0 018.83-21.36 12.59 12.59 0 018.84 3.66l.22.225a2.71 2.71 0 003 .54 4 4 0 01.83-.265 2.705 2.705 0 001.17-2.22V12.5a12.5 12.5 0 0125 0v.36a2.795 2.795 0 002.785 2.73 2.645 2.645 0 001.85-.74l.255-.245a12.5 12.5 0 0117.68 0 12.415 12.415 0 013.665 8.85 12.59 12.59 0 01-3.66 8.84l-.225.205a2.695 2.695 0 00-.54 3 4.05 4.05 0 01.265.83 2.705 2.705 0 002.215 1.185h.71a12.5 12.5 0 010 25h-.36a2.76 2.76 0 00-2 4.635l.245.255a12.57 12.57 0 013.66 8.84 12.395 12.395 0 01-3.66 8.835 12.555 12.555 0 01-8.84 3.665 12.425 12.425 0 01-8.84-3.66l-.205-.235a2.68 2.68 0 00-1.885-.77 2.84 2.84 0 00-1.145.245 2.705 2.705 0 00-1.64 2.465v.71a12.5 12.5 0 01-12.5 12.5zM34.77 76.055a10.25 10.25 0 014.17.865 11.05 11.05 0 017.23 10.205v.375a4.17 4.17 0 008.335 0v-.725a11.085 11.085 0 0118.86-7.845l.255.255a4.195 4.195 0 002.945 1.22 4.15 4.15 0 002.955-1.225 4.195 4.195 0 001.22-2.945 4.15 4.15 0 00-1.225-2.955l-.28-.28a11.095 11.095 0 017.895-18.825h.37a4.17 4.17 0 000-8.335h-.725a11.03 11.03 0 01-10.11-6.695 3.91 3.91 0 01-.3-1.095 11 11 0 012.56-11.405l.255-.245a4.195 4.195 0 001.22-2.945 4.15 4.15 0 00-1.225-2.955 4.175 4.175 0 00-5.9 0l-.28.28a10.975 10.975 0 01-7.73 3.155 10.805 10.805 0 01-4.41-.93 11.04 11.04 0 01-6.69-10.12V12.5a4.17 4.17 0 10-8.335 0v.725a11.04 11.04 0 01-6.69 10.105 4.325 4.325 0 01-1.095.3 11.06 11.06 0 01-11.405-2.56l-.245-.255a4.195 4.195 0 00-2.945-1.22 4.17 4.17 0 00-2.95 7.125l.28.285a10.9 10.9 0 012.31 11.93 11.06 11.06 0 01-10.215 7.23H12.5a4.17 4.17 0 000 8.335h.725a11.095 11.095 0 017.845 18.86l-.255.255a4.195 4.195 0 00-1.22 2.945 4.17 4.17 0 007.12 2.945l.285-.28a11.175 11.175 0 017.77-3.17zM50 66.665A16.665 16.665 0 1166.665 50 16.685 16.685 0 0150 66.665zm0-25A8.335 8.335 0 1058.33 50 8.345 8.345 0 0050 41.665z"/>
</svg>