<?xml version="1.0" encoding="UTF-8" standalone="no"?>
<!-- Created with Inkscape (http://www.inkscape.org/) -->

<svg
   width="62.357868mm"
   height="62.357868mm"
   viewBox="0 0 62.357869 62.357867"
   version="1.1"
   id="svg5"
   inkscape:version="1.1.1 (3bf5ae0d25, 2021-09-20)"
   sodipodi:docname="info-circle.svg"
   xml:space="preserve"
   xmlns:inkscape="http://www.inkscape.org/namespaces/inkscape"
   xmlns:sodipodi="http://sodipodi.sourceforge.net/DTD/sodipodi-0.dtd"
   xmlns="http://www.w3.org/2000/svg"
   xmlns:svg="http://www.w3.org/2000/svg"><sodipodi:namedview
     id="namedview7"
     pagecolor="#ffffff"
     bordercolor="#cccccc"
     borderopacity="1"
     inkscape:showpageshadow="0"
     inkscape:pageopacity="1"
     inkscape:pagecheckerboard="0"
     inkscape:deskcolor="#d1d1d1"
     inkscape:document-units="mm"
     showgrid="false"
     inkscape:zoom="3.8198845"
     inkscape:cx="209.03774"
     inkscape:cy="129.19239"
     inkscape:window-width="2880"
     inkscape:window-height="1541"
     inkscape:window-x="2869"
     inkscape:window-y="-11"
     inkscape:window-maximized="1"
     inkscape:current-layer="layer1"
     inkscape:pageshadow="0"
     fit-margin-top="0"
     fit-margin-left="0"
     fit-margin-right="0"
     fit-margin-bottom="0" /><defs
     id="defs2" /><g
     inkscape:label="Calque 1"
     inkscape:groupmode="layer"
     id="layer1"
     transform="translate(-55.1099,-88.651579)"><circle
       style="fill:#000000;fill-opacity:1;stroke:none;stroke-width:3.0518;stroke-linecap:square;stop-color:#000000"
       id="path1095"
       cx="86.288834"
       cy="119.83051"
       r="31.178934" /><path
       id="path1053"
       style="fill:#ffffff;stroke-width:0.264583"
       d="m 86.123006,95.104843 c -4.49448,0 -4.725809,0.02539 -5.005379,0.54777 -0.18806,0.351396 -0.26251,1.919285 -0.20774,4.375447 0.068,3.04824 0.166121,3.87946 0.482142,4.07882 0.21828,0.1377 2.506057,0.25202 5.083927,0.25425 4.36542,0.004 4.705837,-0.0309 4.960937,-0.50747 0.15067,-0.28153 0.273885,-2.14708 0.273885,-4.146514 0,-3.01071 -0.07502,-3.717809 -0.437699,-4.118612 -0.39299,-0.434247 -0.921003,-0.483691 -5.150073,-0.483691 z m -2.436027,14.552087 c -6.28004,0 -7.206476,0.053 -7.631576,0.4377 -0.42556,0.38513 -0.483644,0.88717 -0.480074,4.16718 0.002,2.05111 0.116688,3.90809 0.254248,4.12637 0.17956,0.28491 0.906094,0.4342 2.575554,0.52916 l 2.325439,0.13229 v 6.4823 6.48229 l -2.325439,0.13229 c -1.66946,0.095 -2.395994,0.24426 -2.575554,0.52917 -0.13756,0.21828 -0.252018,2.05453 -0.254248,4.08037 -0.003,3.05996 0.07025,3.76522 0.434082,4.16718 0.40929,0.45227 1.08153,0.4837 10.29963,0.4837 8.61265,0 9.914826,-0.0529 10.277925,-0.416 0.33937,-0.33936 0.415479,-1.11366 0.415479,-4.21421 0,-4.70123 0.0473,-4.63021 -3.061312,-4.63021 h -2.230355 v -10.7611 c 0,-9.64187 -0.04532,-10.81125 -0.437699,-11.24479 -0.40363,-0.446 -0.9972,-0.48369 -7.5861,-0.48369 z" /></g></svg>
