<?xml version="1.0" encoding="UTF-8" standalone="no"?><svg version="1.1" width="100" height="100" id="svg4460" xmlns="http://www.w3.org/2000/svg" xmlns:svg="http://www.w3.org/2000/svg" xmlns:rdf="http://www.w3.org/1999/02/22-rdf-syntax-ns#" xmlns:cc="http://creativecommons.org/ns#" xmlns:dc="http://purl.org/dc/elements/1.1/">
<path style="fill:rgb(0, 0, 0)"  xmlns="http://www.w3.org/2000/svg" data-name="Combined Shape" d="M0 50a50 50 0 1150 50A50.057 50.057 0 010 50zm9.091 0A40.909 40.909 0 1050 9.091 40.952 40.952 0 009.091 50zM44.67 70.609V47.165a4.946 4.946 0 019.89 0V70.61a4.946 4.946 0 11-9.89 0zm0-37.826c0-3.622 1.621-5.422 4.852-5.522a4.487 4.487 0 015.03 4.943 4.44 4.44 0 01-4.782 4.966 4.543 4.543 0 01-5.096-4.374z"/>
</svg>