<?xml version="1.0" encoding="UTF-8" standalone="no"?>
<!-- Created with Inkscape (http://www.inkscape.org/) -->

<svg
   width="25.143103mm"
   height="35.434856mm"
   viewBox="0 0 25.143103 35.434856"
   version="1.1"
   id="svg5"
   inkscape:version="1.2.2 (732a01da63, 2022-12-09)"
   sodipodi:docname="poibot.svg"
   xml:space="preserve"
   xmlns:inkscape="http://www.inkscape.org/namespaces/inkscape"
   xmlns:sodipodi="http://sodipodi.sourceforge.net/DTD/sodipodi-0.dtd"
   xmlns:xlink="http://www.w3.org/1999/xlink"
   xmlns="http://www.w3.org/2000/svg"
   xmlns:svg="http://www.w3.org/2000/svg"><sodipodi:namedview
     id="namedview7"
     pagecolor="#ffffff"
     bordercolor="#cccccc"
     borderopacity="1"
     inkscape:showpageshadow="0"
     inkscape:pageopacity="1"
     inkscape:pagecheckerboard="0"
     inkscape:deskcolor="#d1d1d1"
     inkscape:document-units="mm"
     showgrid="false"
     inkscape:zoom="0.95497112"
     inkscape:cx="-69.112038"
     inkscape:cy="5.2357604"
     inkscape:window-width="1920"
     inkscape:window-height="1009"
     inkscape:window-x="-8"
     inkscape:window-y="-8"
     inkscape:window-maximized="1"
     inkscape:current-layer="layer1" /><defs
     id="defs2"><linearGradient
       inkscape:collect="always"
       id="linearGradient4041"><stop
         style="stop-color:#f0f0f0;stop-opacity:1"
         offset="0"
         id="stop4037" /><stop
         style="stop-color:#f0f0f0;stop-opacity:1"
         offset="0.86470944"
         id="stop6657" /><stop
         style="stop-color:#c4c4c4;stop-opacity:1"
         offset="0.86616325"
         id="stop6655" /><stop
         style="stop-color:#c4c4c4;stop-opacity:1"
         offset="1"
         id="stop4039" /></linearGradient><radialGradient
       inkscape:collect="always"
       xlink:href="#linearGradient4041"
       id="radialGradient4169"
       cx="112.35323"
       cy="140.45033"
       fx="112.35323"
       fy="140.45033"
       r="10.709272"
       gradientTransform="matrix(1.0682674,0.71760446,-0.78582491,1.1698242,91.721734,-117.68364)"
       gradientUnits="userSpaceOnUse" /><filter
       inkscape:collect="always"
       style="color-interpolation-filters:sRGB"
       id="filter8164"
       x="-0.15450779"
       y="-0.86762073"
       width="1.3090156"
       height="2.7352415"><feGaussianBlur
         inkscape:collect="always"
         stdDeviation="0.92070239"
         id="feGaussianBlur8166" /></filter></defs><g
     inkscape:label="Calque 1"
     inkscape:groupmode="layer"
     id="layer1"
     transform="translate(-92.428444,-110.45481)"><rect
       style="opacity:1;fill:#c4c4c4;fill-opacity:1;stroke:none;stroke-width:1.01695;stroke-linecap:round;stroke-dasharray:none;stroke-opacity:1"
       id="rect8688"
       width="25.143103"
       height="6.2338276"
       x="92.428444"
       y="121.97522"
       ry="2.3410749" /><ellipse
       style="opacity:0.344156;mix-blend-mode:normal;fill:#000000;fill-opacity:1;stroke:none;stroke-width:1;stroke-linecap:round;stroke-dasharray:none;stroke-opacity:1;filter:url(#filter8164)"
       id="path8162"
       cx="104.32223"
       cy="143.60225"
       rx="7.1507258"
       ry="1.2734169"
       transform="matrix(0.59187152,0,0,0.91563113,43.254642,11.213745)" /><path
       style="fill:url(#radialGradient4169);fill-opacity:1;stroke-width:0.264583"
       d="m 105,114.60235 c 5.91449,0 10.70927,4.9358 10.70927,11.0244 0,3.71686 -1.93012,7.35965 -5.11254,10.81775 -1.0914,1.18586 -2.25741,2.26589 -3.42371,3.2221 a 30.551702,30.551702 0 0 1 -1.13189,0.88608 15.785042,15.785042 0 0 1 -0.44713,0.3228 1.0456333,1.0456333 0 0 1 -1.18799,0 c -0.0863,-0.059 -0.23813,-0.16748 -0.44714,-0.3228 a 30.494552,30.494552 0 0 1 -1.13188,-0.88635 c -1.16629,-0.95567 -2.33231,-2.03597 -3.423715,-3.22183 -3.18215,-3.4581 -5.11255,-7.10089 -5.11255,-10.81775 0,-6.0886 4.79478,-11.0244 10.709275,-11.0244 z"
       id="path186" /><path
       id="rect1208"
       style="fill:#000000;fill-opacity:1;stroke-width:10"
       d="m 105.0005,119.15772 c 2.63227,-0.0334 7.95281,1.38402 8.03233,4.0172 v 3.91821 c -0.0867,1.49689 -2.26974,3.92401 -7.51499,3.92401 -5.24525,0 -8.507863,-2.39289 -8.549663,-3.92401 v -3.91821 c -0.0865,-2.49439 5.400053,-3.98381 8.032323,-4.0172 z"
       sodipodi:nodetypes="zcczccz" /><circle
       style="opacity:1;fill:#2d2d2d;fill-opacity:1;stroke:none;stroke-width:1;stroke-linecap:round;stroke-dasharray:none;stroke-opacity:1"
       id="path12000"
       cx="105"
       cy="124.92866"
       r="7.2727981" /><g
       id="g1203"
       transform="translate(0.16483499,-0.86242303)"
       style="fill:#2afeed;fill-opacity:1"><ellipse
         style="fill:#2afeed;fill-opacity:1;stroke:none;stroke-width:8"
         id="path416"
         cx="100.98799"
         cy="125.18668"
         rx="1.9394128"
         ry="1.9671189" /><ellipse
         style="fill:#2afeed;fill-opacity:1;stroke:none;stroke-width:8"
         id="path416-5"
         cx="108.78029"
         cy="125.18668"
         rx="1.9394128"
         ry="1.9671189" /></g><path
       style="fill:none;fill-opacity:1;stroke:#f0f0f0;stroke-width:1;stroke-linecap:round;stroke-dasharray:none;stroke-opacity:1"
       d="m 101.76748,128.23286 c 0,0 1.15913,1.00935 3.2815,1.05833 2.12236,0.049 3.28149,-1.05833 3.28149,-1.05833"
       id="path1370"
       sodipodi:nodetypes="czc" /><g
       id="g10556"><circle
         style="opacity:1;fill:#f0f0f0;fill-opacity:1;stroke:none;stroke-width:1.11353;stroke-linecap:round;stroke-dasharray:none;stroke-opacity:1"
         id="path8634"
         cx="105"
         cy="111.76373"
         r="1.308919" /><path
         style="opacity:1;fill:#c4c4c4;fill-opacity:1;stroke:#f0f0f0;stroke-width:0.994651;stroke-linecap:round;stroke-dasharray:none;stroke-opacity:1"
         d="m 105.01807,112.58717 c -0.0813,0.29193 0,3.50321 0,3.50321"
         id="path10345" /></g></g></svg>
